# xmcd
#
# Track frame offsets: 
#        150
#        15920
#        30717
#        49207
#        64565
#        81012
#        97062
#        108547
#        127067
#        144635
#
# Disc length: 2062 seconds
#
# Revision: 2
# Processed by: cddbd v1.4PL0 Copyright (c) Steve Scherf et al.
# Submitted via: ExactAudioCopy v0.90b3
#
DISCID=84080c0a
DTITLE=Merle Haggard - His Best
DYEAR=1900
DGENRE=Country
TTITLE0=I Don't Want To Sober Up Tonight
TTITLE1=When My Blue Moon Turns To Gold Again
TTITLE2=Make-Up And Faded Blue Jeans
TTITLE3=Love Me When You Can
TTITLE4=Leonard
TTITLE5=No One To Sing For (But The Band)
TTITLE6=Back To The Barrooms Again
TTITLE7=Wake Up
TTITLE8=Roses In The Winter
TTITLE9=The Running Kind
EXTD=
EXTT0=
EXTT1=
EXTT2=
EXTT3=
EXTT4=
EXTT5=
EXTT6=
EXTT7=
EXTT8=
EXTT9=
PLAYORDER=
